<?xml version="1.0" encoding="UTF-8"?>
<svg id="Layer_1" data-name="Layer 1" xmlns="http://www.w3.org/2000/svg" viewBox="0 0 100 100">
  <defs>
    <style>
      .cls-1 {
        fill: #2d2d2d;
      }

      .cls-1, .cls-2, .cls-3, .cls-4, .cls-5 {
        stroke-linejoin: round;
        stroke-width: .5px;
      }

      .cls-1, .cls-2, .cls-4, .cls-5 {
        stroke: #fff;
      }

      .cls-2, .cls-3 {
        fill: none;
      }

      .cls-3 {
        stroke: #000;
        stroke-linecap: round;
      }

      .cls-5 {
        fill: #212121;
      }
    </style>
  </defs>
  <path class="cls-5" d="M72.8,85.85c-1.99,1.26-4.08,2.36-6.25,3.28v-51.06l6.25-1.22v48.99Z"/>
  <path class="cls-1" d="M7.51,49.57l59.03-11.49,6.25-1.22-17.7-6.85-6.02,1.05-39.86,6.98c-1.1,3.73-1.68,7.64-1.72,11.53Z"/>
  <polyline class="cls-2" points="66.55 89.13 66.55 46.09 66.55 38.07"/>
  <path class="cls-4" d="M49.09,92.48c5.93.14,12.01-1.03,17.46-3.35v-43.04l-17.46,3.67v42.72Z"/>
  <path class="cls-5" d="M8.34,58.33c-.58-2.88-.85-5.83-.82-8.76l59.03-11.49v8.01l-58.21,12.24Z"/>
  <path class="cls-3" d="M92.49,50c0,23.37-19.12,42.49-42.49,42.49S7.51,73.37,7.51,50,26.63,7.51,50,7.51s42.49,19.12,42.49,42.49"/>
</svg>