<?xml version="1.0" encoding="UTF-8"?>
<svg id="Layer_1" data-name="Layer 1" xmlns="http://www.w3.org/2000/svg" xmlns:xlink="http://www.w3.org/1999/xlink" viewBox="0 0 100 100">
  <defs>
    <style>
      .cls-1 {
        fill: url(#linear-gradient-4);
      }

      .cls-1, .cls-2, .cls-3, .cls-4, .cls-5, .cls-6 {
        stroke-linejoin: round;
        stroke-width: .5px;
      }

      .cls-1, .cls-2, .cls-3, .cls-4, .cls-6 {
        stroke: #fff;
      }

      .cls-1, .cls-6 {
        opacity: .65;
      }

      .cls-2 {
        fill: url(#linear-gradient-2);
        opacity: .45;
      }

      .cls-3 {
        fill: url(#linear-gradient-3);
      }

      .cls-4, .cls-5 {
        fill: none;
      }

      .cls-5 {
        stroke: #000;
        stroke-linecap: round;
      }

      .cls-6 {
        fill: url(#linear-gradient);
      }
    </style>
    <linearGradient id="linear-gradient" x1="66.55" y1="62.99" x2="72.8" y2="62.99" gradientUnits="userSpaceOnUse">
      <stop offset="0" stop-color="#71d0f1"/>
      <stop offset=".02" stop-color="#68c4eb"/>
      <stop offset=".06" stop-color="#59b2e1"/>
      <stop offset=".11" stop-color="#4fa6db"/>
      <stop offset=".16" stop-color="#4da3da"/>
      <stop offset=".3" stop-color="#5396d0"/>
      <stop offset=".46" stop-color="#568eca"/>
      <stop offset=".66" stop-color="#6252a3"/>
      <stop offset=".82" stop-color="#a6499b"/>
      <stop offset="1" stop-color="#ef5891"/>
    </linearGradient>
    <linearGradient id="linear-gradient-2" x1="7.51" y1="39.79" x2="72.8" y2="39.79" gradientUnits="userSpaceOnUse">
      <stop offset="0" stop-color="#71d0f1"/>
      <stop offset=".02" stop-color="#68c4eb"/>
      <stop offset=".06" stop-color="#59b2e1"/>
      <stop offset=".11" stop-color="#4fa6db"/>
      <stop offset=".16" stop-color="#4da3da"/>
      <stop offset=".3" stop-color="#5396d0"/>
      <stop offset=".46" stop-color="#568eca"/>
      <stop offset=".66" stop-color="#6252a3"/>
      <stop offset=".82" stop-color="#a6499b"/>
      <stop offset="1" stop-color="#ef5891"/>
    </linearGradient>
    <linearGradient id="linear-gradient-3" x1="49.09" y1="69.29" x2="66.55" y2="69.29" gradientUnits="userSpaceOnUse">
      <stop offset="0" stop-color="#71d0f1"/>
      <stop offset=".02" stop-color="#68c4eb"/>
      <stop offset=".06" stop-color="#59b2e1"/>
      <stop offset=".11" stop-color="#4fa6db"/>
      <stop offset=".16" stop-color="#4da3da"/>
      <stop offset=".3" stop-color="#5396d0"/>
      <stop offset=".46" stop-color="#568eca"/>
      <stop offset=".66" stop-color="#6252a3"/>
      <stop offset=".82" stop-color="#a6499b"/>
      <stop offset="1" stop-color="#ef5891"/>
    </linearGradient>
    <linearGradient id="linear-gradient-4" x1="7.51" y1="48.2" x2="66.55" y2="48.2" xlink:href="#linear-gradient"/>
  </defs>
  <path class="cls-6" d="M72.8,85.85c-1.99,1.26-4.08,2.36-6.25,3.28v-51.06l6.25-1.22v48.99Z"/>
  <path class="cls-2" d="M7.51,49.57l59.03-11.49,6.25-1.22-17.7-6.85-6.02,1.05-39.86,6.98c-1.1,3.73-1.68,7.64-1.72,11.53Z"/>
  <polyline class="cls-4" points="66.55 89.13 66.55 46.09 66.55 38.07"/>
  <path class="cls-3" d="M49.09,92.48c5.93.14,12.01-1.03,17.46-3.35v-43.04l-17.46,3.67v42.72Z"/>
  <path class="cls-1" d="M8.34,58.33c-.58-2.88-.85-5.83-.82-8.76l59.03-11.49v8.01l-58.21,12.24Z"/>
  <path class="cls-5" d="M92.49,50c0,23.37-19.12,42.49-42.49,42.49S7.51,73.37,7.51,50,26.63,7.51,50,7.51s42.49,19.12,42.49,42.49"/>
</svg>