<?xml version="1.0" encoding="UTF-8"?>
<svg id="Layer_1" data-name="Layer 1" xmlns="http://www.w3.org/2000/svg" viewBox="0 0 100 100">
  <defs>
    <style>
      .cls-1 {
        stroke-dasharray: 3.03 3.03;
      }

      .cls-1, .cls-2, .cls-3, .cls-4, .cls-5 {
        stroke-linecap: round;
        stroke-linejoin: round;
        stroke-width: .5px;
      }

      .cls-1, .cls-3 {
        fill: none;
        stroke: #000;
      }

      .cls-2 {
        fill: #e3e3e3;
      }

      .cls-2, .cls-4, .cls-5 {
        stroke: #fff;
      }

      .cls-4 {
        fill: #a4a4a4;
      }

      .cls-5 {
        fill: #c3c3c3;
      }
    </style>
  </defs>
  <path class="cls-5" d="M8.34,58.33c21.59-4.54,40.77-8.57,58.21-12.24l6.25-9.23c-19.3,3.76-40.74,7.93-65.29,12.71-.03,2.93.25,5.88.82,8.76Z"/>
  <path class="cls-4" d="M49.09,92.48v-42.72c6.02-1.27,11.83-2.49,17.46-3.67v43.04c-5.45,2.32-11.54,3.48-17.46,3.35Z"/>
  <path class="cls-2" d="M72.8,36.86l-17.7-6.85c-14.07,2.46-29.25,5.12-45.87,8.03-1.1,3.73-1.68,7.64-1.72,11.53,24.55-4.78,45.99-8.95,65.29-12.71Z"/>
  <path class="cls-5" d="M66.55,46.09l6.25-9.23v48.99c-1.99,1.26-4.08,2.36-6.25,3.28v-43.04Z"/>
  <g>
    <path class="cls-3" d="M92.49,50c0,.5,0,1-.03,1.5"/>
    <path class="cls-1" d="M92.25,54.52c-2.28,21.26-20.41,37.96-42.25,37.96-23.37,0-42.49-19.12-42.49-42.49S26.63,7.51,50,7.51s40.82,17.5,42.38,39.47"/>
    <path class="cls-3" d="M92.46,48.5c.02.5.03,1,.03,1.5"/>
  </g>
</svg>