<?xml version="1.0" encoding="UTF-8"?>
<svg id="Layer_1" data-name="Layer 1" xmlns="http://www.w3.org/2000/svg" viewBox="0 0 100 100">
  <defs>
    <style>
      .cls-1 {
        stroke-dasharray: 2.81 2.81;
      }

      .cls-1, .cls-2, .cls-3, .cls-4, .cls-5 {
        stroke-linecap: round;
        stroke-linejoin: round;
      }

      .cls-1, .cls-3, .cls-4 {
        fill: none;
        stroke: #ed2024;
        stroke-width: .15px;
      }

      .cls-2 {
        fill: #cccccb;
      }

      .cls-2, .cls-5 {
        stroke: #000;
        stroke-width: .2px;
      }

      .cls-4 {
        stroke-dasharray: 2.45 2.45;
      }

      .cls-5 {
        fill: #999;
      }

      .cls-6 {
        fill: #ddf1f7;
      }
    </style>
  </defs>
  <rect class="cls-6" x="33.34" y="3.66" width="33.33" height="9.37"/>
  <g>
    <line class="cls-3" x1="66.01" y1="97.91" x2="64.63" y2="97.32"/>
    <line class="cls-1" x1="62.04" y1="96.23" x2="42.65" y2="88.04"/>
    <line class="cls-3" x1="41.36" y1="87.5" x2="39.98" y2="86.91"/>
  </g>
  <g>
    <path class="cls-3" d="M44.76,88.66c-.5,0-.99.05-1.49.14"/>
    <path class="cls-4" d="M40.93,89.53c-2.58,1.15-4.88,3.3-6.11,5.79"/>
    <path class="cls-3" d="M34.35,96.45c-.16.48-.29.96-.37,1.45"/>
  </g>
  <rect class="cls-2" x="66.66" y="2.09" width="1.56" height="95.81"/>
  <rect class="cls-5" x="33.34" y="14.59" width="33.33" height=".65"/>
  <rect class="cls-5" x="33.34" y="15.24" width=".65" height="82.66"/>
  <rect class="cls-2" x="33.34" y="13.03" width="33.33" height="1.56"/>
  <rect class="cls-2" x="33.34" y="2.09" width="33.33" height="1.56"/>
  <rect class="cls-2" x="31.78" y="2.09" width="1.56" height="95.81"/>
  <rect class="cls-5" x="66.01" y="15.24" width=".65" height="82.66"/>
</svg>