<?xml version="1.0" encoding="UTF-8"?>
<svg id="Layer_1" data-name="Layer 1" xmlns="http://www.w3.org/2000/svg" viewBox="0 0 100 100">
  <defs>
    <style>
      .cls-1 {
        fill: #cccccb;
      }

      .cls-1, .cls-2, .cls-3, .cls-4, .cls-5 {
        stroke-linecap: round;
        stroke-linejoin: round;
      }

      .cls-1, .cls-3 {
        stroke: #000;
        stroke-width: .2px;
      }

      .cls-2, .cls-4, .cls-5 {
        fill: none;
        stroke: #ed2024;
        stroke-width: .15px;
      }

      .cls-3 {
        fill: #999;
      }

      .cls-4 {
        stroke-dasharray: 2.8 2.8;
      }

      .cls-6 {
        fill: #ddf1f7;
      }

      .cls-5 {
        stroke-dasharray: 2.46 2.46;
      }
    </style>
  </defs>
  <rect class="cls-6" x="68.22" y="9.22" width="9.37" height="81.75"/>
  <rect class="cls-6" x="22.4" y="9.12" width="9.37" height="81.75"/>
  <g>
    <path class="cls-2" d="M44.83,83.19c-.5,0-.99.06-1.49.15"/>
    <path class="cls-5" d="M41,84.08c-2.59,1.15-4.9,3.3-6.15,5.79"/>
    <path class="cls-2" d="M34.37,90.99c-.17.48-.3.96-.38,1.45"/>
  </g>
  <g>
    <line class="cls-2" x1="66.01" y1="92.44" x2="64.63" y2="91.85"/>
    <line class="cls-4" x1="62.05" y1="90.76" x2="42.72" y2="82.58"/>
    <line class="cls-2" x1="41.43" y1="82.03" x2="40.05" y2="81.45"/>
  </g>
  <rect class="cls-3" x="33.34" y="9.77" width=".65" height="82.66"/>
  <rect class="cls-3" x="33.34" y="9.12" width="33.33" height=".65"/>
  <rect class="cls-3" x="66.01" y="9.77" width=".65" height="82.66"/>
  <rect class="cls-1" x="66.66" y="9.12" width="1.56" height="83.31"/>
  <rect class="cls-1" x="31.78" y="9.12" width="1.56" height="83.31"/>
  <rect class="cls-1" x="77.6" y="7.56" width="1.56" height="84.88"/>
  <rect class="cls-1" x="20.84" y="7.56" width="1.56" height="84.88"/>
  <rect class="cls-1" x="22.4" y="7.56" width="55.2" height="1.56"/>
  <rect class="cls-1" x="22.4" y="90.88" width="9.37" height="1.56"/>
  <rect class="cls-1" x="68.22" y="90.88" width="9.37" height="1.56"/>
</svg>